<svg xmlns="http://www.w3.org/2000/svg" width="73.612" height="85"><rect width="100%" height="100%" fill="none"/><path fill="#42bdff" d="M36.8-18.62 47.57 0 58.4-18.6zM47.57 0 36.7 18.62h21.6zM0 2.63l10.75 18.62L21.59 2.64zm10.75 18.62L-.1 39.87h21.6zM73.61 2.63l10.75 18.62L95.21 2.64zm10.75 18.62L73.52 39.87h21.6zm-47.55 2.63L47.56 42.5 58.4 23.9zM47.56 42.5 36.7 61.12h21.6zM0 45.13l10.75 18.62 10.84-18.61zm10.75 18.62L-.1 82.37h21.6zm62.86-18.62 10.75 18.62 10.85-18.61zm10.75 18.62L73.52 82.37h21.6zm-47.55 2.63L47.56 85 58.4 66.4zM47.56 85 36.7 103.62h21.6z"/><path fill="#ed1d23" d="M58.4-18.61 47.56 0h21.59L58.4-18.6zM47.56 0h-21.6l10.75 18.62zM21.59 2.64 10.75 21.25h21.6L21.58 2.65zM10.75 21.25h-21.6L-.1 39.87zm52.02 0 10.75 18.62 10.84-18.62h-21.6zm-4.37 2.64L47.56 42.5h21.59L58.4 23.9zM47.56 42.5h-21.6l10.75 18.62zm-25.97 2.64L10.75 63.75h21.6l-10.77-18.6zM10.75 63.75h-21.6L-.1 82.37zm52.02 0 10.75 18.62 10.84-18.62h-21.6zm-4.37 2.64L47.56 85h21.59L58.4 66.4zM47.56 85h-21.6l10.75 18.62z"/><path fill="#9112f3" d="m58.3 103.62 10.85-18.61h-21.6zM25.97 85h21.6L36.8 66.38zm32.35-66.38L69.15.01h-21.6zM25.96 0h21.6L36.8-18.62zm36.8 63.75h21.6L73.61 45.13zM21.5 39.87l10.84-18.61H10.75zm-32.34-18.62h21.59L0 2.63zm95.2 0L73.61 2.63 62.77 21.25zm-73.61 42.5L21.5 82.37l10.84-18.61zM0 45.13l-10.85 18.62h21.6zm10.33 20.45-.37-.56-.15.26zM46.1 86.23l.52.3.15-.26zm23.05-43.72h-21.6l10.76 18.61zm-21.6 0L36.82 23.87 25.96 42.5z"/></svg>